<mxfile host="app.diagrams.net" modified="2024-05-26T19:20:49.401Z" agent="Mozilla/5.0 (Windows NT 10.0; Win64; x64) AppleWebKit/537.36 (KHTML, like Gecko) Chrome/125.0.0.0 Safari/537.36" etag="gbj0eEa-j6GyLavR5f4l" version="24.4.8" type="device">
  <diagram id="R2lEEEUBdFMjLlhIrx00" name="Page-1">
    <mxGraphModel dx="1379" dy="2249" grid="1" gridSize="10" guides="1" tooltips="1" connect="1" arrows="1" fold="1" page="1" pageScale="1" pageWidth="1100" pageHeight="1700" math="0" shadow="0" extFonts="Permanent Marker^https://fonts.googleapis.com/css?family=Permanent+Marker">
      <root>
        <mxCell id="0" />
        <mxCell id="1" parent="0" />
        <mxCell id="Jb-vvu64UjQHD91auUWt-2" value="" style="whiteSpace=wrap;html=1;" parent="1" vertex="1">
          <mxGeometry x="585" y="-1080" width="120" as="geometry" />
        </mxCell>
        <mxCell id="Jb-vvu64UjQHD91auUWt-159" value="has_ingredient" style="shape=rhombus;perimeter=rhombusPerimeter;whiteSpace=wrap;html=1;align=center;" parent="1" vertex="1">
          <mxGeometry x="300" y="-1320" width="120" height="60" as="geometry" />
        </mxCell>
        <mxCell id="Jb-vvu64UjQHD91auUWt-161" value="has_equipment" style="shape=rhombus;perimeter=rhombusPerimeter;whiteSpace=wrap;html=1;align=center;" parent="1" vertex="1">
          <mxGeometry x="515" y="-1460" width="120" height="60" as="geometry" />
        </mxCell>
        <mxCell id="Jb-vvu64UjQHD91auUWt-162" value="recipe_meal" style="shape=rhombus;perimeter=rhombusPerimeter;whiteSpace=wrap;html=1;align=center;" parent="1" vertex="1">
          <mxGeometry x="690" y="-1470" width="120" height="60" as="geometry" />
        </mxCell>
        <mxCell id="Jb-vvu64UjQHD91auUWt-163" value="has_steps" style="shape=rhombus;perimeter=rhombusPerimeter;whiteSpace=wrap;html=1;align=center;" parent="1" vertex="1">
          <mxGeometry x="870" y="-1480" width="120" height="60" as="geometry" />
        </mxCell>
        <mxCell id="Jb-vvu64UjQHD91auUWt-165" value="has_thematic_sec" style="shape=rhombus;perimeter=rhombusPerimeter;whiteSpace=wrap;html=1;align=center;" parent="1" vertex="1">
          <mxGeometry x="360" y="-1175" width="120" height="60" as="geometry" />
        </mxCell>
        <mxCell id="Jb-vvu64UjQHD91auUWt-166" value="in _food_group" style="shape=rhombus;perimeter=rhombusPerimeter;whiteSpace=wrap;html=1;align=center;" parent="1" vertex="1">
          <mxGeometry x="20" y="-1610" width="120" height="60" as="geometry" />
        </mxCell>
        <mxCell id="Jb-vvu64UjQHD91auUWt-167" value="recipe_tag" style="shape=rhombus;perimeter=rhombusPerimeter;whiteSpace=wrap;html=1;align=center;" parent="1" vertex="1">
          <mxGeometry x="880" y="-1250" width="140" height="60" as="geometry" />
        </mxCell>
        <mxCell id="Jb-vvu64UjQHD91auUWt-169" value="episode_cuisine_cook_recipe" style="shape=rhombus;perimeter=rhombusPerimeter;whiteSpace=wrap;html=1;align=center;" parent="1" vertex="1">
          <mxGeometry x="500" y="-940" width="260" height="60" as="geometry" />
        </mxCell>
        <mxCell id="Jb-vvu64UjQHD91auUWt-170" value="belongs in" style="shape=rhombus;perimeter=rhombusPerimeter;whiteSpace=wrap;html=1;align=center;" parent="1" vertex="1">
          <mxGeometry x="340" y="-1020" width="120" height="60" as="geometry" />
        </mxCell>
        <mxCell id="Jb-vvu64UjQHD91auUWt-171" value="national_cuisine_cooks" style="shape=rhombus;perimeter=rhombusPerimeter;whiteSpace=wrap;html=1;align=center;" parent="1" vertex="1">
          <mxGeometry x="180" y="-730" width="170" height="60" as="geometry" />
        </mxCell>
        <mxCell id="Jb-vvu64UjQHD91auUWt-226" value="" style="endArrow=classic;html=1;rounded=0;entryX=0;entryY=0;entryDx=0;entryDy=0;exitX=0.5;exitY=0;exitDx=0;exitDy=0;" parent="1" source="Jb-vvu64UjQHD91auUWt-166" target="Jb-vvu64UjQHD91auUWt-279" edge="1">
          <mxGeometry width="50" height="50" relative="1" as="geometry">
            <mxPoint x="150" y="-1650" as="sourcePoint" />
            <mxPoint x="210" y="-1650" as="targetPoint" />
          </mxGeometry>
        </mxCell>
        <mxCell id="Jb-vvu64UjQHD91auUWt-229" value="" style="endArrow=classic;html=1;rounded=0;entryX=0.323;entryY=0.006;entryDx=0;entryDy=0;entryPerimeter=0;exitX=0.5;exitY=1;exitDx=0;exitDy=0;" parent="1" source="Jb-vvu64UjQHD91auUWt-161" target="Jb-vvu64UjQHD91auUWt-262" edge="1">
          <mxGeometry width="50" height="50" relative="1" as="geometry">
            <mxPoint x="607.5" y="-1350" as="sourcePoint" />
            <mxPoint x="619" y="-1280.72" as="targetPoint" />
            <Array as="points" />
          </mxGeometry>
        </mxCell>
        <mxCell id="Jb-vvu64UjQHD91auUWt-230" value="" style="endArrow=none;html=1;rounded=0;entryX=0.438;entryY=0;entryDx=0;entryDy=0;entryPerimeter=0;exitX=0.5;exitY=1;exitDx=0;exitDy=0;" parent="1" source="Jb-vvu64UjQHD91auUWt-166" target="Jb-vvu64UjQHD91auUWt-270" edge="1">
          <mxGeometry relative="1" as="geometry">
            <mxPoint y="-1570" as="sourcePoint" />
            <mxPoint x="160" y="-1570" as="targetPoint" />
          </mxGeometry>
        </mxCell>
        <mxCell id="Jb-vvu64UjQHD91auUWt-232" value="" style="endArrow=none;html=1;rounded=0;" parent="1" target="Jb-vvu64UjQHD91auUWt-262" edge="1">
          <mxGeometry relative="1" as="geometry">
            <mxPoint x="380" y="-1270.5" as="sourcePoint" />
            <mxPoint x="570" y="-1260" as="targetPoint" />
          </mxGeometry>
        </mxCell>
        <mxCell id="Jb-vvu64UjQHD91auUWt-234" value="" style="endArrow=none;html=1;rounded=0;exitX=0.603;exitY=0.001;exitDx=0;exitDy=0;exitPerimeter=0;" parent="1" source="Jb-vvu64UjQHD91auUWt-262" target="Jb-vvu64UjQHD91auUWt-162" edge="1">
          <mxGeometry relative="1" as="geometry">
            <mxPoint x="665" y="-1280" as="sourcePoint" />
            <mxPoint x="830" y="-1365.5" as="targetPoint" />
          </mxGeometry>
        </mxCell>
        <mxCell id="Jb-vvu64UjQHD91auUWt-240" value="" style="endArrow=classic;html=1;rounded=0;exitX=0.5;exitY=1;exitDx=0;exitDy=0;" parent="1" source="Jb-vvu64UjQHD91auUWt-163" target="Jb-vvu64UjQHD91auUWt-262" edge="1">
          <mxGeometry width="50" height="50" relative="1" as="geometry">
            <mxPoint x="830" y="-1210" as="sourcePoint" />
            <mxPoint x="790.75" y="-1265.84" as="targetPoint" />
          </mxGeometry>
        </mxCell>
        <mxCell id="Jb-vvu64UjQHD91auUWt-243" value="" style="endArrow=none;html=1;rounded=0;entryX=0;entryY=0.143;entryDx=0;entryDy=0;entryPerimeter=0;exitX=1;exitY=0.5;exitDx=0;exitDy=0;" parent="1" source="Jb-vvu64UjQHD91auUWt-169" target="Jb-vvu64UjQHD91auUWt-292" edge="1">
          <mxGeometry relative="1" as="geometry">
            <mxPoint x="775" y="-900" as="sourcePoint" />
            <mxPoint x="981.8000000000002" y="-897" as="targetPoint" />
          </mxGeometry>
        </mxCell>
        <mxCell id="Jb-vvu64UjQHD91auUWt-244" value="" style="endArrow=none;html=1;rounded=0;entryX=0.5;entryY=1;entryDx=0;entryDy=0;" parent="1" source="Jb-vvu64UjQHD91auUWt-169" target="Jb-vvu64UjQHD91auUWt-263" edge="1">
          <mxGeometry relative="1" as="geometry">
            <mxPoint x="615" y="-970" as="sourcePoint" />
            <mxPoint x="727.5" y="-1040" as="targetPoint" />
          </mxGeometry>
        </mxCell>
        <mxCell id="Jb-vvu64UjQHD91auUWt-245" value="" style="endArrow=none;html=1;rounded=0;exitX=0.5;exitY=0;exitDx=0;exitDy=0;" parent="1" source="Jb-vvu64UjQHD91auUWt-289" target="Jb-vvu64UjQHD91auUWt-169" edge="1">
          <mxGeometry relative="1" as="geometry">
            <mxPoint x="527.2800000000002" y="-737.8" as="sourcePoint" />
            <mxPoint x="690" y="-770" as="targetPoint" />
          </mxGeometry>
        </mxCell>
        <mxCell id="Jb-vvu64UjQHD91auUWt-246" value="" style="endArrow=none;html=1;rounded=0;entryX=0.058;entryY=0.459;entryDx=0;entryDy=0;entryPerimeter=0;exitX=1;exitY=0.25;exitDx=0;exitDy=0;" parent="1" target="Jb-vvu64UjQHD91auUWt-169" edge="1" source="Jb-vvu64UjQHD91auUWt-285">
          <mxGeometry relative="1" as="geometry">
            <mxPoint x="310.17999999999984" y="-910.31" as="sourcePoint" />
            <mxPoint x="360" y="-810" as="targetPoint" />
          </mxGeometry>
        </mxCell>
        <mxCell id="Jb-vvu64UjQHD91auUWt-247" value="" style="endArrow=classic;html=1;rounded=0;entryX=0.5;entryY=0;entryDx=0;entryDy=0;exitX=0;exitY=1;exitDx=0;exitDy=0;" parent="1" source="Jb-vvu64UjQHD91auUWt-170" target="Jb-vvu64UjQHD91auUWt-285" edge="1">
          <mxGeometry width="50" height="50" relative="1" as="geometry">
            <mxPoint x="210" y="-870" as="sourcePoint" />
            <mxPoint x="310" y="-930" as="targetPoint" />
          </mxGeometry>
        </mxCell>
        <mxCell id="Jb-vvu64UjQHD91auUWt-248" value="" style="endArrow=none;html=1;rounded=0;entryX=-0.005;entryY=0.813;entryDx=0;entryDy=0;entryPerimeter=0;" parent="1" source="Jb-vvu64UjQHD91auUWt-170" target="Jb-vvu64UjQHD91auUWt-263" edge="1">
          <mxGeometry relative="1" as="geometry">
            <mxPoint x="400" y="-980" as="sourcePoint" />
            <mxPoint x="570" y="-1060" as="targetPoint" />
          </mxGeometry>
        </mxCell>
        <mxCell id="Jb-vvu64UjQHD91auUWt-251" value="" style="endArrow=none;html=1;rounded=0;entryX=-0.005;entryY=0.424;entryDx=0;entryDy=0;entryPerimeter=0;" parent="1" source="Jb-vvu64UjQHD91auUWt-165" target="Jb-vvu64UjQHD91auUWt-263" edge="1">
          <mxGeometry relative="1" as="geometry">
            <mxPoint x="355" y="-1150" as="sourcePoint" />
            <mxPoint x="541" y="-1155.92" as="targetPoint" />
          </mxGeometry>
        </mxCell>
        <mxCell id="Jb-vvu64UjQHD91auUWt-252" value="" style="endArrow=none;html=1;rounded=0;entryX=-0.007;entryY=0.096;entryDx=0;entryDy=0;exitX=1;exitY=0.5;exitDx=0;exitDy=0;entryPerimeter=0;" parent="1" source="Jb-vvu64UjQHD91auUWt-171" target="Jb-vvu64UjQHD91auUWt-290" edge="1">
          <mxGeometry relative="1" as="geometry">
            <mxPoint x="370" y="-710" as="sourcePoint" />
            <mxPoint x="418.3800000000001" y="-621.95" as="targetPoint" />
          </mxGeometry>
        </mxCell>
        <mxCell id="Jb-vvu64UjQHD91auUWt-253" value="" style="endArrow=none;html=1;rounded=0;entryX=0.5;entryY=0;entryDx=0;entryDy=0;exitX=0.5;exitY=1;exitDx=0;exitDy=0;" parent="1" source="Jb-vvu64UjQHD91auUWt-286" target="Jb-vvu64UjQHD91auUWt-171" edge="1">
          <mxGeometry relative="1" as="geometry">
            <mxPoint x="160" y="-730" as="sourcePoint" />
            <mxPoint x="320" y="-730" as="targetPoint" />
          </mxGeometry>
        </mxCell>
        <mxCell id="Jb-vvu64UjQHD91auUWt-254" value="equipment" style="swimlane;childLayout=stackLayout;horizontal=1;startSize=50;horizontalStack=0;rounded=1;fontSize=14;fontStyle=0;strokeWidth=2;resizeParent=0;resizeLast=1;shadow=0;dashed=0;align=center;arcSize=4;whiteSpace=wrap;html=1;" parent="1" vertex="1">
          <mxGeometry x="515" y="-1670" width="160" height="120" as="geometry" />
        </mxCell>
        <mxCell id="Jb-vvu64UjQHD91auUWt-255" value="&lt;div&gt;&lt;u&gt;equipment_id&lt;/u&gt;&lt;/div&gt;&lt;div&gt;equipment_user_instuction&lt;/div&gt;&lt;div&gt;recipe_id&lt;/div&gt;&lt;div&gt;equipment_name&lt;/div&gt;" style="align=left;strokeColor=none;fillColor=none;spacingLeft=4;fontSize=12;verticalAlign=top;resizable=0;rotatable=0;part=1;html=1;" parent="Jb-vvu64UjQHD91auUWt-254" vertex="1">
          <mxGeometry y="50" width="160" height="70" as="geometry" />
        </mxCell>
        <mxCell id="Jb-vvu64UjQHD91auUWt-256" value="meal" style="swimlane;childLayout=stackLayout;horizontal=1;startSize=50;horizontalStack=0;rounded=1;fontSize=14;fontStyle=0;strokeWidth=2;resizeParent=0;resizeLast=1;shadow=0;dashed=0;align=center;arcSize=4;whiteSpace=wrap;html=1;" parent="1" vertex="1">
          <mxGeometry x="720" y="-1670" width="160" height="120" as="geometry" />
        </mxCell>
        <mxCell id="Jb-vvu64UjQHD91auUWt-257" value="&lt;u&gt;meal_id&lt;/u&gt;&lt;div&gt;meal_name&lt;/div&gt;" style="align=left;strokeColor=none;fillColor=none;spacingLeft=4;fontSize=12;verticalAlign=top;resizable=0;rotatable=0;part=1;html=1;" parent="Jb-vvu64UjQHD91auUWt-256" vertex="1">
          <mxGeometry y="50" width="160" height="70" as="geometry" />
        </mxCell>
        <mxCell id="Jb-vvu64UjQHD91auUWt-258" value="steps" style="swimlane;childLayout=stackLayout;horizontal=1;startSize=50;horizontalStack=0;rounded=1;fontSize=14;fontStyle=0;strokeWidth=2;resizeParent=0;resizeLast=1;shadow=0;dashed=0;align=center;arcSize=4;whiteSpace=wrap;html=1;" parent="1" vertex="1">
          <mxGeometry x="910" y="-1670" width="160" height="120" as="geometry" />
        </mxCell>
        <mxCell id="Jb-vvu64UjQHD91auUWt-259" value="&lt;u&gt;step_id&lt;/u&gt;&lt;div&gt;step_number&lt;/div&gt;&lt;div&gt;step_instruction&lt;/div&gt;" style="align=left;strokeColor=none;fillColor=none;spacingLeft=4;fontSize=12;verticalAlign=top;resizable=0;rotatable=0;part=1;html=1;" parent="Jb-vvu64UjQHD91auUWt-258" vertex="1">
          <mxGeometry y="50" width="160" height="70" as="geometry" />
        </mxCell>
        <mxCell id="Jb-vvu64UjQHD91auUWt-260" value="tag" style="swimlane;childLayout=stackLayout;horizontal=1;startSize=50;horizontalStack=0;rounded=1;fontSize=14;fontStyle=0;strokeWidth=2;resizeParent=0;resizeLast=1;shadow=0;dashed=0;align=center;arcSize=4;whiteSpace=wrap;html=1;" parent="1" vertex="1">
          <mxGeometry x="930" y="-1390" width="160" height="100" as="geometry" />
        </mxCell>
        <mxCell id="Jb-vvu64UjQHD91auUWt-261" value="&lt;u&gt;tag_id&lt;/u&gt;&lt;div&gt;tag_name&lt;/div&gt;" style="align=left;strokeColor=none;fillColor=none;spacingLeft=4;fontSize=12;verticalAlign=top;resizable=0;rotatable=0;part=1;html=1;" parent="Jb-vvu64UjQHD91auUWt-260" vertex="1">
          <mxGeometry y="50" width="160" height="50" as="geometry" />
        </mxCell>
        <mxCell id="Jb-vvu64UjQHD91auUWt-262" value="recipe" style="swimlane;childLayout=stackLayout;horizontal=1;startSize=50;horizontalStack=0;rounded=1;fontSize=14;fontStyle=0;strokeWidth=2;resizeParent=0;resizeLast=1;shadow=0;dashed=0;align=center;arcSize=4;whiteSpace=wrap;html=1;" parent="1" vertex="1">
          <mxGeometry x="580" y="-1280" width="160" height="250" as="geometry" />
        </mxCell>
        <mxCell id="Jb-vvu64UjQHD91auUWt-263" value="&lt;u&gt;recipe_id&lt;/u&gt;&lt;div&gt;recipe_name&lt;/div&gt;&lt;div&gt;recipe_description&lt;/div&gt;&lt;div&gt;category&lt;/div&gt;&lt;div&gt;difficulty&lt;/div&gt;&lt;div&gt;preparation_time&lt;/div&gt;&lt;div&gt;cooking_time&lt;/div&gt;&lt;div&gt;total_time&lt;/div&gt;&lt;div&gt;portions&lt;/div&gt;&lt;div&gt;basic_ingredient_id&lt;/div&gt;&lt;div&gt;national_cuisine_id&lt;/div&gt;" style="align=left;strokeColor=none;fillColor=none;spacingLeft=4;fontSize=12;verticalAlign=top;resizable=0;rotatable=0;part=1;html=1;" parent="Jb-vvu64UjQHD91auUWt-262" vertex="1">
          <mxGeometry y="50" width="160" height="200" as="geometry" />
        </mxCell>
        <mxCell id="Jb-vvu64UjQHD91auUWt-269" value="" style="endArrow=none;html=1;rounded=0;entryX=0;entryY=0.5;entryDx=0;entryDy=0;" parent="1" target="Jb-vvu64UjQHD91auUWt-167" edge="1">
          <mxGeometry relative="1" as="geometry">
            <mxPoint x="740" y="-1200" as="sourcePoint" />
            <mxPoint x="900" y="-1200" as="targetPoint" />
          </mxGeometry>
        </mxCell>
        <mxCell id="Jb-vvu64UjQHD91auUWt-270" value="ingredient" style="swimlane;childLayout=stackLayout;horizontal=1;startSize=50;horizontalStack=0;rounded=1;fontSize=14;fontStyle=0;strokeWidth=2;resizeParent=0;resizeLast=1;shadow=0;dashed=0;align=center;arcSize=4;whiteSpace=wrap;html=1;perimeterSpacing=0;" parent="1" vertex="1">
          <mxGeometry x="10" y="-1500" width="160" height="160" as="geometry" />
        </mxCell>
        <mxCell id="Jb-vvu64UjQHD91auUWt-271" value="&lt;div&gt;&lt;u&gt;ingredient_id&lt;/u&gt;&lt;br&gt;&lt;/div&gt;ingredient_name&lt;div&gt;ingredient_protein&lt;/div&gt;&lt;div&gt;ingredient_carbs&lt;/div&gt;&lt;div&gt;ingredient_fat&lt;/div&gt;&lt;div&gt;ingredient_calories()&lt;/div&gt;" style="align=left;strokeColor=none;fillColor=none;spacingLeft=4;fontSize=12;verticalAlign=top;resizable=0;rotatable=0;part=1;html=1;" parent="Jb-vvu64UjQHD91auUWt-270" vertex="1">
          <mxGeometry y="50" width="160" height="110" as="geometry" />
        </mxCell>
        <mxCell id="Jb-vvu64UjQHD91auUWt-278" value="food_groups" style="swimlane;childLayout=stackLayout;horizontal=1;startSize=50;horizontalStack=0;rounded=1;fontSize=14;fontStyle=0;strokeWidth=2;resizeParent=0;resizeLast=1;shadow=0;dashed=0;align=center;arcSize=4;whiteSpace=wrap;html=1;" parent="1" vertex="1">
          <mxGeometry x="310" y="-1670" width="160" height="120" as="geometry" />
        </mxCell>
        <mxCell id="Jb-vvu64UjQHD91auUWt-279" value="&lt;u&gt;food_groups_id&lt;/u&gt;&lt;div&gt;food_group_name&lt;/div&gt;&lt;div&gt;food_group_description&lt;/div&gt;" style="align=left;strokeColor=none;fillColor=none;spacingLeft=4;fontSize=12;verticalAlign=top;resizable=0;rotatable=0;part=1;html=1;" parent="Jb-vvu64UjQHD91auUWt-278" vertex="1">
          <mxGeometry y="50" width="160" height="70" as="geometry" />
        </mxCell>
        <mxCell id="Jb-vvu64UjQHD91auUWt-280" value="thematic_section" style="swimlane;childLayout=stackLayout;horizontal=1;startSize=50;horizontalStack=0;rounded=1;fontSize=14;fontStyle=0;strokeWidth=2;resizeParent=0;resizeLast=1;shadow=0;dashed=0;align=center;arcSize=4;whiteSpace=wrap;html=1;" parent="1" vertex="1">
          <mxGeometry x="60" y="-1190" width="160" height="120" as="geometry" />
        </mxCell>
        <mxCell id="Jb-vvu64UjQHD91auUWt-281" value="&lt;u&gt;thematic_section_id&lt;/u&gt;&lt;div&gt;thematic_section_name&lt;/div&gt;&lt;div&gt;thematic_section_description&lt;/div&gt;" style="align=left;strokeColor=none;fillColor=none;spacingLeft=4;fontSize=12;verticalAlign=top;resizable=0;rotatable=0;part=1;html=1;" parent="Jb-vvu64UjQHD91auUWt-280" vertex="1">
          <mxGeometry y="50" width="160" height="70" as="geometry" />
        </mxCell>
        <mxCell id="Jb-vvu64UjQHD91auUWt-285" value="national_cuisine" style="swimlane;childLayout=stackLayout;horizontal=1;startSize=50;horizontalStack=0;rounded=1;fontSize=14;fontStyle=0;strokeWidth=2;resizeParent=0;resizeLast=1;shadow=0;dashed=0;align=center;arcSize=4;whiteSpace=wrap;html=1;" parent="1" vertex="1">
          <mxGeometry x="240" y="-930" width="160" height="100" as="geometry" />
        </mxCell>
        <mxCell id="Jb-vvu64UjQHD91auUWt-286" value="&lt;u&gt;national_cuisine_id&lt;/u&gt;&lt;div&gt;national_cuisine_name&lt;/div&gt;" style="align=left;strokeColor=none;fillColor=none;spacingLeft=4;fontSize=12;verticalAlign=top;resizable=0;rotatable=0;part=1;html=1;" parent="Jb-vvu64UjQHD91auUWt-285" vertex="1">
          <mxGeometry y="50" width="160" height="50" as="geometry" />
        </mxCell>
        <mxCell id="Jb-vvu64UjQHD91auUWt-289" value="cook" style="swimlane;childLayout=stackLayout;horizontal=1;startSize=50;horizontalStack=0;rounded=1;fontSize=14;fontStyle=0;strokeWidth=2;resizeParent=0;resizeLast=1;shadow=0;dashed=0;align=center;arcSize=4;whiteSpace=wrap;html=1;" parent="1" vertex="1">
          <mxGeometry x="550" y="-780" width="160" height="220" as="geometry" />
        </mxCell>
        <mxCell id="Jb-vvu64UjQHD91auUWt-290" value="&lt;u&gt;cook_id&lt;/u&gt;&lt;div&gt;cook_name&lt;/div&gt;&lt;div&gt;cook_surname&lt;/div&gt;&lt;div&gt;gender&lt;/div&gt;&lt;div&gt;phone_number&lt;/div&gt;&lt;div&gt;date_of_birth&lt;/div&gt;&lt;div&gt;age()&lt;/div&gt;&lt;div&gt;classification&lt;/div&gt;&lt;div&gt;username&lt;/div&gt;&lt;div&gt;password&lt;/div&gt;&lt;div&gt;score&lt;/div&gt;" style="align=left;strokeColor=none;fillColor=none;spacingLeft=4;fontSize=12;verticalAlign=top;resizable=0;rotatable=0;part=1;html=1;" parent="Jb-vvu64UjQHD91auUWt-289" vertex="1">
          <mxGeometry y="50" width="160" height="170" as="geometry" />
        </mxCell>
        <mxCell id="Jb-vvu64UjQHD91auUWt-291" value="episode" style="swimlane;childLayout=stackLayout;horizontal=1;startSize=50;horizontalStack=0;rounded=1;fontSize=14;fontStyle=0;strokeWidth=2;resizeParent=0;resizeLast=1;shadow=0;dashed=0;align=center;arcSize=4;whiteSpace=wrap;html=1;" parent="1" vertex="1">
          <mxGeometry x="830" y="-970" width="160" height="120" as="geometry" />
        </mxCell>
        <mxCell id="Jb-vvu64UjQHD91auUWt-292" value="&lt;u&gt;episode_id&lt;/u&gt;&lt;div&gt;episode_number&lt;/div&gt;&lt;div&gt;season&lt;/div&gt;&lt;div&gt;episode_date&lt;/div&gt;" style="align=left;strokeColor=none;fillColor=none;spacingLeft=4;fontSize=12;verticalAlign=top;resizable=0;rotatable=0;part=1;html=1;" parent="Jb-vvu64UjQHD91auUWt-291" vertex="1">
          <mxGeometry y="50" width="160" height="70" as="geometry" />
        </mxCell>
        <mxCell id="cnZtesOjh4T5zc8Z55ls-1" value="" style="shape=link;html=1;rounded=0;exitX=0.5;exitY=1;exitDx=0;exitDy=0;entryX=0.5;entryY=0;entryDx=0;entryDy=0;" edge="1" parent="1" source="Jb-vvu64UjQHD91auUWt-255" target="Jb-vvu64UjQHD91auUWt-161">
          <mxGeometry relative="1" as="geometry">
            <mxPoint x="580" y="-1530" as="sourcePoint" />
            <mxPoint x="740" y="-1530" as="targetPoint" />
          </mxGeometry>
        </mxCell>
        <mxCell id="cnZtesOjh4T5zc8Z55ls-3" value="" style="shape=link;html=1;rounded=0;exitX=0.5;exitY=1;exitDx=0;exitDy=0;entryX=0.5;entryY=0;entryDx=0;entryDy=0;" edge="1" parent="1" source="Jb-vvu64UjQHD91auUWt-257" target="Jb-vvu64UjQHD91auUWt-162">
          <mxGeometry relative="1" as="geometry">
            <mxPoint x="830" y="-1540" as="sourcePoint" />
            <mxPoint x="810" y="-1450" as="targetPoint" />
          </mxGeometry>
        </mxCell>
        <mxCell id="cnZtesOjh4T5zc8Z55ls-4" value="" style="shape=link;html=1;rounded=0;exitX=0.5;exitY=1;exitDx=0;exitDy=0;entryX=0.5;entryY=0;entryDx=0;entryDy=0;" edge="1" parent="1" source="Jb-vvu64UjQHD91auUWt-259" target="Jb-vvu64UjQHD91auUWt-163">
          <mxGeometry relative="1" as="geometry">
            <mxPoint x="1045" y="-1540" as="sourcePoint" />
            <mxPoint x="995" y="-1460" as="targetPoint" />
          </mxGeometry>
        </mxCell>
        <mxCell id="cnZtesOjh4T5zc8Z55ls-5" value="" style="shape=link;html=1;rounded=0;exitX=0.5;exitY=1;exitDx=0;exitDy=0;entryX=0.982;entryY=0.51;entryDx=0;entryDy=0;entryPerimeter=0;" edge="1" parent="1" source="Jb-vvu64UjQHD91auUWt-261" target="Jb-vvu64UjQHD91auUWt-167">
          <mxGeometry relative="1" as="geometry">
            <mxPoint x="1060" y="-1320" as="sourcePoint" />
            <mxPoint x="1010" y="-1240" as="targetPoint" />
          </mxGeometry>
        </mxCell>
        <mxCell id="cnZtesOjh4T5zc8Z55ls-6" value="" style="shape=link;html=1;rounded=0;entryX=0;entryY=0;entryDx=0;entryDy=0;exitX=1;exitY=0.25;exitDx=0;exitDy=0;" edge="1" parent="1" source="Jb-vvu64UjQHD91auUWt-271" target="Jb-vvu64UjQHD91auUWt-159">
          <mxGeometry relative="1" as="geometry">
            <mxPoint x="185" y="-1380" as="sourcePoint" />
            <mxPoint x="345" y="-1380" as="targetPoint" />
          </mxGeometry>
        </mxCell>
        <mxCell id="cnZtesOjh4T5zc8Z55ls-8" value="" style="endArrow=none;html=1;rounded=0;dashed=1;dashPattern=1 2;entryX=0;entryY=1;entryDx=0;entryDy=0;" edge="1" parent="1" source="cnZtesOjh4T5zc8Z55ls-10" target="Jb-vvu64UjQHD91auUWt-159">
          <mxGeometry relative="1" as="geometry">
            <mxPoint x="310" y="-1250" as="sourcePoint" />
            <mxPoint x="440" y="-1280" as="targetPoint" />
          </mxGeometry>
        </mxCell>
        <mxCell id="cnZtesOjh4T5zc8Z55ls-11" value="" style="endArrow=none;html=1;rounded=0;dashed=1;dashPattern=1 2;entryX=0;entryY=1;entryDx=0;entryDy=0;" edge="1" parent="1" target="cnZtesOjh4T5zc8Z55ls-10">
          <mxGeometry relative="1" as="geometry">
            <mxPoint x="310" y="-1250" as="sourcePoint" />
            <mxPoint x="330" y="-1275" as="targetPoint" />
          </mxGeometry>
        </mxCell>
        <mxCell id="cnZtesOjh4T5zc8Z55ls-10" value="basic_ingredient" style="rounded=0;whiteSpace=wrap;html=1;" vertex="1" parent="1">
          <mxGeometry x="270" y="-1250" width="110" height="20" as="geometry" />
        </mxCell>
        <mxCell id="cnZtesOjh4T5zc8Z55ls-12" value="Quantity&lt;div&gt;Measure Unit&lt;/div&gt;" style="rounded=0;whiteSpace=wrap;html=1;" vertex="1" parent="1">
          <mxGeometry x="320" y="-1410" width="120" height="40" as="geometry" />
        </mxCell>
        <mxCell id="cnZtesOjh4T5zc8Z55ls-13" value="" style="endArrow=none;html=1;rounded=0;dashed=1;dashPattern=1 2;entryX=0.5;entryY=1;entryDx=0;entryDy=0;exitX=0.5;exitY=0;exitDx=0;exitDy=0;" edge="1" parent="1" source="Jb-vvu64UjQHD91auUWt-159" target="cnZtesOjh4T5zc8Z55ls-12">
          <mxGeometry relative="1" as="geometry">
            <mxPoint x="370" y="-1325" as="sourcePoint" />
            <mxPoint x="374" y="-1350" as="targetPoint" />
          </mxGeometry>
        </mxCell>
        <mxCell id="cnZtesOjh4T5zc8Z55ls-14" value="" style="shape=link;html=1;rounded=0;exitX=0;exitY=0.5;exitDx=0;exitDy=0;entryX=1;entryY=0;entryDx=0;entryDy=0;" edge="1" parent="1" source="Jb-vvu64UjQHD91auUWt-165" target="Jb-vvu64UjQHD91auUWt-281">
          <mxGeometry relative="1" as="geometry">
            <mxPoint x="310" y="-1160" as="sourcePoint" />
            <mxPoint x="290" y="-1070" as="targetPoint" />
          </mxGeometry>
        </mxCell>
        <mxCell id="cnZtesOjh4T5zc8Z55ls-15" value="recipe_characterization" style="shape=rhombus;perimeter=rhombusPerimeter;whiteSpace=wrap;html=1;align=center;" vertex="1" parent="1">
          <mxGeometry x="65" y="-1300" width="150" height="60" as="geometry" />
        </mxCell>
        <mxCell id="cnZtesOjh4T5zc8Z55ls-17" value="" style="shape=link;html=1;rounded=0;entryX=0;entryY=0.5;entryDx=0;entryDy=0;exitX=1;exitY=0.5;exitDx=0;exitDy=0;" edge="1" parent="1" source="cnZtesOjh4T5zc8Z55ls-15" target="cnZtesOjh4T5zc8Z55ls-10">
          <mxGeometry relative="1" as="geometry">
            <mxPoint x="180" y="-1375" as="sourcePoint" />
            <mxPoint x="340" y="-1258" as="targetPoint" />
          </mxGeometry>
        </mxCell>
        <mxCell id="cnZtesOjh4T5zc8Z55ls-18" value="" style="endArrow=classic;html=1;rounded=0;entryX=0.5;entryY=0;entryDx=0;entryDy=0;exitX=0.5;exitY=1;exitDx=0;exitDy=0;" edge="1" parent="1" source="cnZtesOjh4T5zc8Z55ls-15" target="Jb-vvu64UjQHD91auUWt-280">
          <mxGeometry width="50" height="50" relative="1" as="geometry">
            <mxPoint x="60" y="-1260" as="sourcePoint" />
            <mxPoint x="117" y="-1138" as="targetPoint" />
            <Array as="points" />
          </mxGeometry>
        </mxCell>
        <mxCell id="cnZtesOjh4T5zc8Z55ls-21" value="get_score_from" style="rhombus;whiteSpace=wrap;html=1;" vertex="1" parent="1">
          <mxGeometry x="800" y="-702" width="140" height="90" as="geometry" />
        </mxCell>
        <mxCell id="cnZtesOjh4T5zc8Z55ls-22" value="" style="endArrow=none;html=1;rounded=0;exitX=0;exitY=0;exitDx=0;exitDy=0;entryX=1;entryY=0.25;entryDx=0;entryDy=0;" edge="1" parent="1" source="cnZtesOjh4T5zc8Z55ls-21" target="Jb-vvu64UjQHD91auUWt-290">
          <mxGeometry relative="1" as="geometry">
            <mxPoint x="750" y="-676" as="sourcePoint" />
            <mxPoint x="824" y="-800" as="targetPoint" />
          </mxGeometry>
        </mxCell>
        <mxCell id="cnZtesOjh4T5zc8Z55ls-23" value="" style="endArrow=none;html=1;rounded=0;exitX=0;exitY=1;exitDx=0;exitDy=0;entryX=1.004;entryY=0.575;entryDx=0;entryDy=0;entryPerimeter=0;" edge="1" parent="1" source="cnZtesOjh4T5zc8Z55ls-21" target="Jb-vvu64UjQHD91auUWt-290">
          <mxGeometry relative="1" as="geometry">
            <mxPoint x="740" y="-610" as="sourcePoint" />
            <mxPoint x="635" y="-607" as="targetPoint" />
          </mxGeometry>
        </mxCell>
        <mxCell id="cnZtesOjh4T5zc8Z55ls-24" value="cook_id" style="text;html=1;align=center;verticalAlign=middle;resizable=0;points=[];autosize=1;strokeColor=none;fillColor=none;" vertex="1" parent="1">
          <mxGeometry x="730" y="-630" width="60" height="30" as="geometry" />
        </mxCell>
        <mxCell id="cnZtesOjh4T5zc8Z55ls-25" value="judge_id" style="text;html=1;align=center;verticalAlign=middle;resizable=0;points=[];autosize=1;strokeColor=none;fillColor=none;" vertex="1" parent="1">
          <mxGeometry x="730" y="-710" width="70" height="30" as="geometry" />
        </mxCell>
      </root>
    </mxGraphModel>
  </diagram>
</mxfile>
